<svg width="702" height="374" viewBox="0 0 702 374" fill="none" xmlns="http://www.w3.org/2000/svg">
<rect x="88.1772" y="252.448" width="34.0792" height="34.1379" fill="white"/>
<rect x="51" y="252.448" width="34.0792" height="34.1379" fill="white"/>
<rect x="125.354" y="252.448" width="34.0792" height="34.1379" fill="white"/>
<rect x="162.532" y="252.448" width="34.0792" height="34.1379" fill="white"/>
<rect x="51" y="212.103" width="34.1379" height="34.0792" transform="rotate(-90 51 212.103)" fill="white"/>
<rect x="51" y="249.345" width="34.1379" height="34.0792" transform="rotate(-90 51 249.345)" fill="white"/>
<rect x="51" y="174.862" width="34.1379" height="34.0792" transform="rotate(-90 51 174.862)" fill="white"/>
<rect x="51" y="137.621" width="34.1379" height="34.0792" transform="rotate(-90 51 137.621)" fill="white"/>
<rect x="51" y="100.379" width="34.1379" height="34.0792" transform="rotate(-90 51 100.379)" fill="white"/>
<rect x="51" y="63.1379" width="34.1379" height="34.0792" transform="rotate(-90 51 63.1379)" fill="white"/>
<rect x="259.606" y="252.448" width="34.0792" height="34.1379" fill="white"/>
<rect x="259.606" y="212.103" width="34.1379" height="34.0792" transform="rotate(-90 259.606 212.103)" fill="white"/>
<rect x="259.606" y="249.345" width="34.1379" height="34.0792" transform="rotate(-90 259.606 249.345)" fill="white"/>
<rect x="259.606" y="174.862" width="34.1379" height="34.0792" transform="rotate(-90 259.606 174.862)" fill="white"/>
<rect x="259.606" y="137.621" width="34.1379" height="34.0792" transform="rotate(-90 259.606 137.621)" fill="white"/>
<rect x="259.606" y="100.379" width="34.1379" height="34.0792" transform="rotate(-90 259.606 100.379)" fill="white"/>
<rect x="296.783" y="100.379" width="34.1379" height="34.0792" transform="rotate(-90 296.783 100.379)" fill="white"/>
<rect x="333.96" y="137.621" width="34.1379" height="34.0792" transform="rotate(-90 333.96 137.621)" fill="white"/>
<rect x="371.138" y="100.379" width="34.1379" height="34.0792" transform="rotate(-90 371.138 100.379)" fill="white"/>
<rect x="333.96" y="174.862" width="34.1379" height="34.0792" transform="rotate(-90 333.96 174.862)" fill="white"/>
<rect x="259.606" y="63.1379" width="34.1379" height="34.0792" transform="rotate(-90 259.606 63.1379)" fill="white"/>
<rect x="408.315" y="252.448" width="34.0792" height="34.1379" fill="white"/>
<rect x="408.315" y="212.103" width="34.1379" height="34.0792" transform="rotate(-90 408.315 212.103)" fill="white"/>
<rect x="408.315" y="249.345" width="34.1379" height="34.0792" transform="rotate(-90 408.315 249.345)" fill="white"/>
<rect x="408.315" y="174.862" width="34.1379" height="34.0792" transform="rotate(-90 408.315 174.862)" fill="white"/>
<rect x="408.315" y="137.621" width="34.1379" height="34.0792" transform="rotate(-90 408.315 137.621)" fill="white"/>
<rect x="408.315" y="100.379" width="34.1379" height="34.0792" transform="rotate(-90 408.315 100.379)" fill="white"/>
<rect x="408.315" y="63.1379" width="34.1379" height="34.0792" transform="rotate(-90 408.315 63.1379)" fill="white"/>
<rect x="468.212" y="252.448" width="34.0792" height="34.1379" fill="white"/>
<rect x="505.389" y="252.448" width="34.0792" height="34.1379" fill="white"/>
<rect x="542.566" y="252.448" width="34.0792" height="34.1379" fill="white"/>
<rect x="579.744" y="252.448" width="34.0792" height="34.1379" fill="white"/>
<rect x="616.921" y="252.448" width="34.0792" height="34.1379" fill="white"/>
<rect x="468.212" y="212.103" width="34.1379" height="34.0792" transform="rotate(-90 468.212 212.103)" fill="white"/>
<rect x="468.212" y="249.345" width="34.1379" height="34.0792" transform="rotate(-90 468.212 249.345)" fill="white"/>
<rect x="468.212" y="174.862" width="34.1379" height="34.0792" transform="rotate(-90 468.212 174.862)" fill="white"/>
<rect x="505.389" y="174.862" width="34.1379" height="34.0792" transform="rotate(-90 505.389 174.862)" fill="white"/>
<rect x="542.566" y="174.862" width="34.1379" height="34.0792" transform="rotate(-90 542.566 174.862)" fill="white"/>
<rect x="579.744" y="174.862" width="34.1379" height="34.0792" transform="rotate(-90 579.744 174.862)" fill="white"/>
<rect x="468.212" y="137.621" width="34.1379" height="34.0792" transform="rotate(-90 468.212 137.621)" fill="white"/>
<rect x="468.212" y="100.379" width="34.1379" height="34.0792" transform="rotate(-90 468.212 100.379)" fill="white"/>
<rect x="468.212" y="63.1379" width="34.1379" height="34.0792" transform="rotate(-90 468.212 63.1379)" fill="white"/>
<rect x="505.389" y="63.1379" width="34.1379" height="34.0792" transform="rotate(-90 505.389 63.1379)" fill="white"/>
<rect x="542.566" y="63.1379" width="34.1379" height="34.0792" transform="rotate(-90 542.566 63.1379)" fill="white"/>
<rect x="579.744" y="63.1379" width="34.1379" height="34.0792" transform="rotate(-90 579.744 63.1379)" fill="white"/>
<rect x="616.921" y="63.1379" width="34.1379" height="34.0792" transform="rotate(-90 616.921 63.1379)" fill="white"/>
<rect x="196.611" y="63.1379" width="34.0792" height="34.1379" transform="rotate(180 196.611 63.1379)" fill="white"/>
<rect x="159.434" y="63.1379" width="34.0792" height="34.1379" transform="rotate(180 159.434 63.1379)" fill="white"/>
<rect x="122.256" y="63.1379" width="34.0792" height="34.1379" transform="rotate(180 122.256 63.1379)" fill="white"/>
<rect x="196.611" y="63.1379" width="34.0792" height="34.1379" transform="rotate(180 196.611 63.1379)" fill="white"/>
<rect x="159.434" y="63.1379" width="34.0792" height="34.1379" transform="rotate(180 159.434 63.1379)" fill="white"/>
<rect x="233.788" y="66.2414" width="34.1379" height="34.0792" transform="rotate(90 233.788 66.2414)" fill="white"/>
<rect x="233.788" y="103.483" width="34.1379" height="34.0792" transform="rotate(90 233.788 103.483)" fill="white"/>
<rect x="233.788" y="177.966" width="34.1379" height="34.0792" transform="rotate(90 233.788 177.966)" fill="white"/>
<rect x="233.788" y="215.207" width="34.1379" height="34.0792" transform="rotate(90 233.788 215.207)" fill="white"/>
<rect x="122.256" y="63.1379" width="34.0792" height="34.1379" transform="rotate(180 122.256 63.1379)" fill="white"/>
<rect x="196.611" y="174.862" width="34.0792" height="34.1379" transform="rotate(180 196.611 174.862)" fill="white"/>
<rect x="159.434" y="174.862" width="34.0792" height="34.1379" transform="rotate(180 159.434 174.862)" fill="white"/>
<rect x="122.256" y="174.862" width="34.0792" height="34.1379" transform="rotate(180 122.256 174.862)" fill="white"/>
<path d="M56.2784 336V312.192L58.0384 312.224C58.561 312.224 59.0944 312.208 59.6384 312.176C60.1824 312.133 60.769 312.096 61.3984 312.064C62.0277 312.021 62.7317 312 63.5104 312C65.3344 312 66.833 312.235 68.0064 312.704C69.1797 313.173 70.049 313.835 70.6144 314.688C71.1797 315.531 71.4624 316.523 71.4624 317.664C71.4624 318.411 71.3344 319.168 71.0784 319.936C70.833 320.704 70.4437 321.381 69.9104 321.968C69.377 322.544 68.689 322.944 67.8464 323.168C68.817 323.221 69.6864 323.52 70.4544 324.064C71.233 324.597 71.8517 325.285 72.3104 326.128C72.769 326.96 72.9984 327.867 72.9984 328.848C72.9984 330.288 72.7104 331.563 72.1344 332.672C71.5584 333.781 70.5717 334.651 69.1744 335.28C67.777 335.909 65.841 336.224 63.3664 336.224C62.4384 336.224 61.4784 336.192 60.4864 336.128C59.4944 336.075 58.7104 336.032 58.1344 336H56.2784ZM59.9904 322.384C60.2784 322.427 60.5984 322.459 60.9504 322.48C61.3024 322.491 61.665 322.496 62.0384 322.496C62.4117 322.485 62.769 322.48 63.1104 322.48C63.4624 322.469 63.7824 322.464 64.0704 322.464C65.1584 322.464 66.0544 322.112 66.7584 321.408C67.473 320.704 67.8304 319.627 67.8304 318.176C67.8304 316.971 67.4037 316.08 66.5504 315.504C65.697 314.928 64.4757 314.64 62.8864 314.64C62.6944 314.64 62.3904 314.651 61.9744 314.672C61.569 314.683 61.1744 314.704 60.7904 314.736C60.4064 314.768 60.1397 314.811 59.9904 314.864V322.384ZM59.9904 333.168C60.1717 333.275 60.4864 333.355 60.9344 333.408C61.3824 333.461 61.8624 333.499 62.3744 333.52C62.897 333.531 63.345 333.536 63.7184 333.536C65.4357 333.536 66.7797 333.221 67.7504 332.592C68.721 331.963 69.2064 330.843 69.2064 329.232C69.2064 327.792 68.769 326.747 67.8944 326.096C67.0304 325.435 65.681 325.104 63.8464 325.104C63.5477 325.104 63.217 325.104 62.8544 325.104C62.5024 325.093 62.145 325.093 61.7824 325.104C61.4304 325.104 61.0997 325.109 60.7904 325.12C60.481 325.131 60.2144 325.152 59.9904 325.184V333.168ZM85.3066 336V312.224H89.0826V336H85.3066ZM112.149 336.256C109.941 336.299 108.031 335.797 106.421 334.752C104.81 333.696 103.578 332.235 102.725 330.368C101.871 328.491 101.471 326.347 101.525 323.936C101.578 321.28 102.101 319.067 103.093 317.296C104.095 315.525 105.423 314.197 107.077 313.312C108.741 312.427 110.591 311.979 112.629 311.968C114.741 311.957 116.581 312.453 118.149 313.456C119.717 314.448 120.922 315.856 121.765 317.68C122.618 319.504 123.018 321.643 122.965 324.096C122.911 326.752 122.41 328.976 121.461 330.768C120.511 332.549 119.231 333.899 117.621 334.816C116.01 335.733 114.186 336.213 112.149 336.256ZM112.245 333.376C114.357 333.376 116.037 332.581 117.285 330.992C118.533 329.392 119.157 327.04 119.157 323.936C119.157 322.293 118.906 320.784 118.405 319.408C117.914 318.021 117.173 316.912 116.181 316.08C115.199 315.237 113.973 314.816 112.501 314.816C111.21 314.816 110.021 315.147 108.933 315.808C107.845 316.469 106.97 317.488 106.309 318.864C105.658 320.24 105.333 322.005 105.333 324.16C105.333 325.792 105.589 327.312 106.101 328.72C106.623 330.117 107.397 331.243 108.421 332.096C109.445 332.949 110.719 333.376 112.245 333.376ZM134.042 336L136.49 312.224H141.77L145.962 325.6L147.194 330.688L148.298 325.6L152.282 312.224H157.338L160.186 336H156.442L155.034 321.584L154.586 315.024L152.954 321.584L148.266 336.224H146.01L141.082 321.584L139.354 315.024L138.89 321.584L137.642 336H134.042ZM172.572 336V312.224H186.396V315.104H176.348V322.336H183.804V325.184H176.348V333.056H187.516V336H172.572ZM178.876 310.096L177.276 308.608C177.297 308.587 177.489 308.416 177.852 308.096C178.214 307.765 178.652 307.365 179.164 306.896C179.676 306.427 180.188 305.957 180.7 305.488C181.222 305.008 181.66 304.597 182.012 304.256C182.364 303.915 182.55 303.723 182.572 303.68L184.988 305.76C184.625 306.133 184.188 306.539 183.676 306.976C183.174 307.413 182.636 307.84 182.06 308.256C181.494 308.672 180.934 309.045 180.38 309.376C179.825 309.696 179.324 309.936 178.876 310.096ZM199.158 336V312.224C199.371 312.224 199.579 312.224 199.782 312.224C199.995 312.224 200.203 312.224 200.406 312.224C200.609 312.224 200.811 312.224 201.014 312.224C201.515 312.224 202.07 312.203 202.678 312.16C203.286 312.117 203.926 312.075 204.598 312.032C205.281 311.989 205.974 311.968 206.678 311.968C210.539 311.968 213.398 312.976 215.254 314.992C217.11 316.997 218.038 319.808 218.038 323.424C218.038 326.133 217.558 328.453 216.598 330.384C215.649 332.315 214.294 333.787 212.534 334.8C210.774 335.813 208.694 336.299 206.294 336.256C205.451 336.235 204.513 336.187 203.478 336.112C202.443 336.037 201.515 336 200.694 336C200.523 336 200.353 336 200.182 336C200.011 336 199.841 336 199.67 336C199.499 336 199.329 336 199.158 336ZM202.934 333.152C203.446 333.259 204.059 333.339 204.774 333.392C205.499 333.435 206.187 333.451 206.838 333.44C208.257 333.419 209.51 333.083 210.598 332.432C211.697 331.781 212.555 330.763 213.174 329.376C213.793 327.989 214.102 326.187 214.102 323.968C214.102 321.675 213.798 319.856 213.19 318.512C212.582 317.157 211.67 316.187 210.454 315.6C209.249 315.013 207.745 314.72 205.942 314.72C205.323 314.72 204.753 314.741 204.23 314.784C203.707 314.827 203.275 314.88 202.934 314.944V333.152ZM230.269 336V312.224H234.045V336H230.269ZM246.471 324.208C246.471 322.235 246.764 320.491 247.351 318.976C247.948 317.461 248.764 316.181 249.799 315.136C250.834 314.091 252.018 313.301 253.351 312.768C254.695 312.235 256.108 311.968 257.591 311.968C258.786 311.968 259.788 312.032 260.599 312.16C261.42 312.277 262.092 312.405 262.615 312.544C263.138 312.683 263.559 312.789 263.879 312.864L263.335 316.208C263.164 316.101 262.871 315.952 262.455 315.76C262.039 315.568 261.458 315.392 260.711 315.232C259.964 315.061 259.004 314.976 257.831 314.976C256.295 314.976 254.956 315.344 253.815 316.08C252.674 316.805 251.788 317.845 251.159 319.2C250.54 320.544 250.231 322.139 250.231 323.984C250.231 325.797 250.535 327.408 251.143 328.816C251.762 330.213 252.647 331.312 253.799 332.112C254.951 332.912 256.322 333.312 257.911 333.312C258.7 333.312 259.484 333.237 260.263 333.088C261.052 332.939 261.751 332.752 262.359 332.528C262.978 332.304 263.426 332.075 263.703 331.84V335.008C263.244 335.189 262.738 335.376 262.183 335.568C261.628 335.76 260.988 335.92 260.263 336.048C259.548 336.187 258.7 336.256 257.719 336.256C255.447 336.256 253.468 335.755 251.783 334.752C250.098 333.739 248.791 332.331 247.863 330.528C246.935 328.715 246.471 326.608 246.471 324.208ZM277.324 336H273.356L282.38 311.968H286.044L294.94 336H290.86L284.924 318.128L284.252 315.84L283.548 318.128L277.324 336ZM277.836 330.16L278.476 327.392H289.388L290.06 330.16H277.836ZM318.464 336V312.224H332.288V315.104H322.24V322.336H329.696V325.184H322.24V333.056H333.408V336H318.464ZM351.05 336.256C350.016 336.256 349.034 336.176 348.106 336.016C347.189 335.867 346.4 335.685 345.738 335.472C345.077 335.259 344.602 335.061 344.314 334.88L345.098 331.824C345.504 332.059 346.01 332.288 346.618 332.512C347.226 332.736 347.893 332.923 348.618 333.072C349.344 333.211 350.08 333.28 350.826 333.28C352.288 333.28 353.402 333.035 354.17 332.544C354.938 332.053 355.322 331.253 355.322 330.144C355.322 329.397 355.13 328.773 354.746 328.272C354.362 327.76 353.786 327.28 353.018 326.832C352.261 326.384 351.312 325.888 350.17 325.344C349.2 324.864 348.256 324.288 347.338 323.616C346.432 322.944 345.685 322.155 345.098 321.248C344.512 320.341 344.218 319.301 344.218 318.128C344.218 316.976 344.442 316.011 344.89 315.232C345.349 314.443 345.962 313.808 346.73 313.328C347.498 312.848 348.352 312.501 349.29 312.288C350.24 312.075 351.21 311.968 352.202 311.968C353.653 311.968 354.853 312.112 355.802 312.4C356.752 312.677 357.434 312.955 357.85 313.232L357.114 316.192C356.57 315.851 355.93 315.547 355.194 315.28C354.469 315.003 353.472 314.864 352.202 314.864C351.424 314.864 350.704 314.965 350.042 315.168C349.381 315.371 348.848 315.68 348.442 316.096C348.037 316.512 347.834 317.045 347.834 317.696C347.834 318.432 347.984 319.051 348.282 319.552C348.592 320.043 349.088 320.507 349.77 320.944C350.453 321.371 351.349 321.872 352.458 322.448C353.258 322.864 354.048 323.307 354.826 323.776C355.605 324.235 356.309 324.747 356.938 325.312C357.578 325.877 358.085 326.528 358.458 327.264C358.842 327.989 359.034 328.821 359.034 329.76C359.034 331.211 358.693 332.421 358.01 333.392C357.338 334.352 356.4 335.072 355.194 335.552C354 336.021 352.618 336.256 351.05 336.256ZM370.824 336V312.224H372.456C373.437 312.224 374.408 312.181 375.368 312.096C376.328 312.011 377.341 311.968 378.408 311.968C380.136 311.968 381.624 312.24 382.872 312.784C384.12 313.317 385.08 314.16 385.752 315.312C386.424 316.453 386.76 317.941 386.76 319.776C386.76 322.368 385.976 324.389 384.408 325.84C382.851 327.28 380.584 328 377.608 328C376.861 328 376.243 327.995 375.752 327.984C375.272 327.973 374.888 327.968 374.6 327.968V336H370.824ZM374.6 325.088C375.08 325.152 375.555 325.195 376.024 325.216C376.504 325.237 376.957 325.248 377.384 325.248C378.376 325.248 379.304 325.109 380.168 324.832C381.032 324.544 381.725 324.011 382.248 323.232C382.781 322.443 383.048 321.291 383.048 319.776C383.048 317.952 382.557 316.629 381.576 315.808C380.605 314.976 379.197 314.592 377.352 314.656C376.893 314.667 376.424 314.693 375.944 314.736C375.464 314.779 375.016 314.848 374.6 314.944V325.088ZM398.41 336V312.224H412.234V315.104H402.186V322.336H409.642V325.184H402.186V333.056H413.354V336H398.41ZM422.856 324.208C422.856 322.235 423.149 320.491 423.736 318.976C424.333 317.461 425.149 316.181 426.184 315.136C427.219 314.091 428.403 313.301 429.736 312.768C431.08 312.235 432.493 311.968 433.976 311.968C435.171 311.968 436.173 312.032 436.984 312.16C437.805 312.277 438.477 312.405 439 312.544C439.523 312.683 439.944 312.789 440.264 312.864L439.72 316.208C439.549 316.101 439.256 315.952 438.84 315.76C438.424 315.568 437.843 315.392 437.096 315.232C436.349 315.061 435.389 314.976 434.216 314.976C432.68 314.976 431.341 315.344 430.2 316.08C429.059 316.805 428.173 317.845 427.544 319.2C426.925 320.544 426.616 322.139 426.616 323.984C426.616 325.797 426.92 327.408 427.528 328.816C428.147 330.213 429.032 331.312 430.184 332.112C431.336 332.912 432.707 333.312 434.296 333.312C435.085 333.312 435.869 333.237 436.648 333.088C437.437 332.939 438.136 332.752 438.744 332.528C439.363 332.304 439.811 332.075 440.088 331.84V335.008C439.629 335.189 439.123 335.376 438.568 335.568C438.013 335.76 437.373 335.92 436.648 336.048C435.933 336.187 435.085 336.256 434.104 336.256C431.832 336.256 429.853 335.755 428.168 334.752C426.483 333.739 425.176 332.331 424.248 330.528C423.32 328.715 422.856 326.608 422.856 324.208ZM452.733 336V312.224H456.509V336H452.733ZM471.639 336H467.671L476.695 311.968H480.359L489.255 336H485.175L479.239 318.128L478.567 315.84L477.863 318.128L471.639 336ZM472.151 330.16L472.791 327.392H483.703L484.375 330.16H472.151ZM499.974 336V312.224H503.718V333.024H513.062V336H499.974ZM524.867 336V312.224H528.643V336H524.867ZM541.245 336L540.541 334.688L552.445 316.288L553.341 315.168H541.853V312.224H557.597L558.333 313.472L546.685 331.712L545.533 333.088H557.437V336H541.245ZM571.109 336H567.141L576.165 311.968H579.829L588.725 336H584.645L578.709 318.128L578.037 315.84L577.333 318.128L571.109 336ZM571.621 330.16L572.261 327.392H583.173L583.845 330.16H571.621ZM599.444 336V312.224C599.657 312.224 599.865 312.224 600.068 312.224C600.281 312.224 600.489 312.224 600.692 312.224C600.895 312.224 601.097 312.224 601.3 312.224C601.801 312.224 602.356 312.203 602.964 312.16C603.572 312.117 604.212 312.075 604.884 312.032C605.567 311.989 606.26 311.968 606.964 311.968C610.825 311.968 613.684 312.976 615.54 314.992C617.396 316.997 618.324 319.808 618.324 323.424C618.324 326.133 617.844 328.453 616.884 330.384C615.935 332.315 614.58 333.787 612.82 334.8C611.06 335.813 608.98 336.299 606.58 336.256C605.737 336.235 604.799 336.187 603.764 336.112C602.729 336.037 601.801 336 600.98 336C600.809 336 600.639 336 600.468 336C600.297 336 600.127 336 599.956 336C599.785 336 599.615 336 599.444 336ZM603.22 333.152C603.732 333.259 604.345 333.339 605.06 333.392C605.785 333.435 606.473 333.451 607.124 333.44C608.543 333.419 609.796 333.083 610.884 332.432C611.983 331.781 612.841 330.763 613.46 329.376C614.079 327.989 614.388 326.187 614.388 323.968C614.388 321.675 614.084 319.856 613.476 318.512C612.868 317.157 611.956 316.187 610.74 315.6C609.535 315.013 608.031 314.72 606.228 314.72C605.609 314.72 605.039 314.741 604.516 314.784C603.993 314.827 603.561 314.88 603.22 314.944V333.152ZM630.906 336H626.938L635.962 311.968H639.626L648.522 336H644.442L638.506 318.128L637.834 315.84L637.13 318.128L630.906 336ZM631.418 330.16L632.058 327.392H642.97L643.642 330.16H631.418Z" fill="white"/>
</svg>
